<svg width="392" height="449" viewBox="0 0 392 449" fill="none" xmlns="http://www.w3.org/2000/svg">
<path d="M0 5.99999C0 2.68628 2.68629 0 6 0H386C389.314 0 392 2.68629 392 6V443C392 446.314 389.314 449 386 449H6C2.68629 449 0 446.314 0 443V5.99999Z" fill="var(--nes-color-bg-elevated)"/>
<path d="M39.1 22H37.5L32 27.5L37.5 33H39.1L33.6 27.5L39.1 22Z" fill="var(--nes-color-text-cta-default)"/>
<path d="M136.572 20.8H134.044L129.676 32H132.028L132.956 29.44H137.596L138.572 32H141.052L136.572 20.8ZM133.66 27.616L135.004 23.84C135.116 23.536 135.196 23.216 135.26 22.912C135.34 23.216 135.42 23.456 135.484 23.664L136.908 27.616H133.66ZM149.815 32C149.719 31.104 149.719 30.672 149.719 29.936V23.68H147.575V27.584C147.575 29.424 146.983 30.336 145.799 30.336C144.679 30.336 144.327 29.68 144.327 27.68V23.68H142.183V28.368C142.183 30.976 142.999 32.128 144.999 32.128C146.231 32.128 147.143 31.664 147.735 30.72L147.799 32H149.815ZM159.816 23.68H157.816L157.752 25.04C157.256 24.032 156.392 23.536 155.192 23.536C153.032 23.536 151.72 25.136 151.72 27.76C151.72 30.32 152.968 32 155.016 32C156.296 32 157.224 31.44 157.816 30.336C157.736 32.48 157.64 32.88 156.76 33.408C156.328 33.664 155.832 33.792 155.272 33.792C154.472 33.792 153.576 33.536 152.76 33.088L152.584 34.96C153.752 35.392 154.488 35.536 155.528 35.536C158.408 35.536 159.816 34.24 159.816 30.992V23.68ZM157.704 27.824C157.704 29.184 156.872 30.256 155.784 30.256C154.696 30.256 153.96 29.264 153.96 27.712C153.96 26.288 154.68 25.328 155.768 25.328C156.888 25.328 157.704 26.368 157.704 27.824ZM169.721 32C169.625 31.104 169.625 30.672 169.625 29.936V23.68H167.481V27.584C167.481 29.424 166.889 30.336 165.705 30.336C164.585 30.336 164.233 29.68 164.233 27.68V23.68H162.089V28.368C162.089 30.976 162.905 32.128 164.905 32.128C166.137 32.128 167.049 31.664 167.641 30.72L167.705 32H169.721ZM177.514 29.44C177.514 27.968 176.698 27.488 175.738 27.168L174.986 26.912C173.994 26.576 173.754 26.4 173.754 26C173.754 25.488 174.33 25.136 175.178 25.136C175.738 25.136 176.362 25.248 177.018 25.456L177.178 23.84C176.426 23.632 175.706 23.536 175.002 23.536C172.89 23.536 171.61 24.56 171.61 26.096C171.61 27.28 172.218 27.984 173.738 28.496L174.394 28.72C175.018 28.928 175.338 29.264 175.338 29.6C175.338 30.16 174.746 30.544 173.834 30.544C173.194 30.544 172.506 30.352 171.754 29.952L171.642 31.76C172.554 32 173.37 32.128 174.09 32.128C176.25 32.128 177.514 31.136 177.514 29.44ZM184.17 30.224C183.866 30.304 183.626 30.336 183.418 30.336C182.33 30.336 182.186 29.648 182.186 28.352V25.328H184.074V23.744H182.186V21.328L180.01 22.032V23.744H178.442V25.328H180.01V28.816C180.01 31.104 180.778 32.064 182.826 32.064C183.226 32.064 183.69 32.016 184.234 31.904L184.17 30.224ZM193.408 32C193.312 31.104 193.312 30.672 193.312 29.936V23.68H191.168V27.584C191.168 29.424 190.576 30.336 189.392 30.336C188.272 30.336 187.92 29.68 187.92 27.68V23.68H185.776V28.368C185.776 30.976 186.592 32.128 188.592 32.128C189.824 32.128 190.736 31.664 191.328 30.72L191.392 32H193.408ZM201.201 29.44C201.201 27.968 200.385 27.488 199.425 27.168L198.673 26.912C197.681 26.576 197.441 26.4 197.441 26C197.441 25.488 198.017 25.136 198.865 25.136C199.425 25.136 200.049 25.248 200.705 25.456L200.865 23.84C200.113 23.632 199.393 23.536 198.689 23.536C196.577 23.536 195.297 24.56 195.297 26.096C195.297 27.28 195.905 27.984 197.425 28.496L198.081 28.72C198.705 28.928 199.025 29.264 199.025 29.6C199.025 30.16 198.433 30.544 197.521 30.544C196.881 30.544 196.193 30.352 195.441 29.952L195.329 31.76C196.241 32 197.057 32.128 197.777 32.128C199.937 32.128 201.201 31.136 201.201 29.44ZM214.711 30.208C213.159 30.224 212.007 30.224 211.223 30.224C210.455 30.224 210.071 30.224 210.071 30.208C212.935 27.696 214.375 25.568 214.375 23.792C214.375 21.856 212.999 20.64 210.839 20.64C209.831 20.64 208.695 20.896 207.399 21.408L207.591 23.376C208.519 22.752 209.399 22.448 210.215 22.448C211.255 22.448 211.991 23.104 211.991 24.032C211.991 25.392 209.895 27.888 207.175 30.112V32H214.711V30.208ZM223.996 26.416C223.996 22.56 222.7 20.64 220.092 20.64C217.42 20.64 216.172 22.688 216.172 26.528C216.172 30.192 217.5 32.176 220.092 32.176C222.572 32.176 223.996 30.32 223.996 26.416ZM221.708 26.512C221.708 29.184 221.164 30.512 220.092 30.512C219.004 30.512 218.46 29.184 218.46 26.528C218.46 23.728 219.004 22.32 220.092 22.32C221.26 22.32 221.708 23.664 221.708 26.512ZM232.992 30.208C231.44 30.224 230.288 30.224 229.504 30.224C228.736 30.224 228.352 30.224 228.352 30.208C231.216 27.696 232.656 25.568 232.656 23.792C232.656 21.856 231.28 20.64 229.12 20.64C228.112 20.64 226.976 20.896 225.68 21.408L225.872 23.376C226.8 22.752 227.68 22.448 228.496 22.448C229.536 22.448 230.272 23.104 230.272 24.032C230.272 25.392 228.176 27.888 225.456 30.112V32H232.992V30.208ZM242.133 30.208C240.581 30.224 239.429 30.224 238.645 30.224C237.877 30.224 237.493 30.224 237.493 30.208C240.357 27.696 241.797 25.568 241.797 23.792C241.797 21.856 240.421 20.64 238.261 20.64C237.253 20.64 236.117 20.896 234.821 21.408L235.013 23.376C235.941 22.752 236.821 22.448 237.637 22.448C238.677 22.448 239.413 23.104 239.413 24.032C239.413 25.392 237.317 27.888 234.597 30.112V32H242.133V30.208Z" fill="var(--nes-color-text-cta-default)"/>
<path d="M257 29.95L251.5 24.45V26.05L257 31.55L262.5 26.05V24.45L257 29.95Z" fill="var(--nes-color-text-cta-default)"/>
<path d="M357.5 27.5L352 33H353.6L359.1 27.5L353.6 22H352L357.5 27.5Z" fill="var(--nes-color-text-cta-default)"/>
<path d="M41.4618 76V71.712C41.4618 68.784 40.6938 67.744 38.8698 67.744C37.7178 67.744 36.5978 68.448 36.2138 69.552C36.0538 68.448 35.0778 67.744 33.9258 67.744C32.7578 67.744 31.8938 68.32 31.3498 69.472C31.3498 69.264 31.3658 68.704 31.3658 67.856H30.3898C30.4378 68.704 30.4698 69.648 30.4698 70.688V76H31.4938V72.032C31.4938 70 32.3258 68.624 33.7658 68.624C34.3898 68.624 34.7738 68.8 35.0938 69.376C35.3818 69.888 35.4458 70.768 35.4458 72.144V76H36.4698V72.144C36.4698 69.792 37.2378 68.624 38.7578 68.624C39.9578 68.624 40.4538 69.392 40.4538 71.744V76H41.4618ZM49.7751 76C49.7271 75.456 49.6791 74.816 49.6791 74.096V72.496C49.6791 71.296 49.6631 70.56 49.6311 70.256C49.4071 68.528 48.6071 67.76 46.8631 67.76C46.0151 67.76 45.1831 67.936 44.3671 68.288V69.344C45.1831 68.88 45.9351 68.656 46.6231 68.656C47.9831 68.656 48.6711 69.424 48.6711 70.944V71.072C48.3991 71.072 48.1431 71.056 47.8871 71.056C44.9271 71.056 43.4391 71.952 43.4391 73.744C43.4391 75.184 44.5111 76.112 46.0471 76.112C47.3111 76.112 48.2391 75.584 48.8311 74.512C48.8151 74.768 48.7991 75.056 48.7991 75.36C48.7991 75.568 48.7991 75.792 48.8151 76H49.7751ZM48.6711 71.904C48.6711 74.24 47.9511 75.296 46.2071 75.296C45.2471 75.296 44.4951 74.704 44.4951 73.776C44.4951 72.496 45.7271 71.888 48.0471 71.888C48.2551 71.888 48.4631 71.888 48.6711 71.904Z" fill="#75767C"/>
<path d="M93.4111 63.904H92.3551V68C92.3551 68.464 92.3711 68.944 92.4031 69.408C91.8271 68.304 90.9151 67.76 89.6831 67.76C87.6511 67.76 86.4191 69.552 86.4191 71.936C86.4191 74.432 87.7151 76.112 89.7951 76.112C91.0111 76.112 92.1631 75.376 92.4991 74.32C92.4991 75.168 92.5151 75.696 92.5311 76H93.4111V63.904ZM92.4031 71.792C92.4031 73.92 91.4111 75.296 89.8751 75.296C88.3551 75.296 87.4751 73.92 87.4751 71.856C87.4751 69.92 88.3711 68.56 89.8271 68.56C91.3311 68.56 92.4031 69.952 92.4031 71.792ZM97.1746 64.176H95.9746V65.552H97.1746V64.176ZM97.0946 67.856H96.0706V76H97.0946V67.856Z" fill="#75767C"/>
<path d="M144.619 67.856L143.371 71.936C142.859 73.6 142.571 74.72 142.459 75.408C142.331 74.72 142.155 73.984 141.899 73.184L140.155 67.856H138.939L137.211 73.28C136.939 74.128 136.795 74.864 136.715 75.424C136.603 74.672 136.427 73.84 136.107 72.832L134.523 67.856H133.419L136.107 76H137.307L138.507 72.304C138.971 70.896 139.275 69.616 139.515 68.544C139.563 68.976 139.675 69.6 139.915 70.304L141.851 76H143.051L145.675 67.856H144.619ZM154.047 71.952C154.047 69.344 152.575 67.664 150.223 67.664C147.935 67.664 146.447 69.456 146.447 71.936C146.447 74.448 147.919 76.176 150.271 76.176C152.591 76.176 154.047 74.448 154.047 71.952ZM152.991 71.952C152.991 73.904 151.855 75.376 150.255 75.376C148.639 75.376 147.503 73.872 147.503 71.968C147.503 69.984 148.591 68.496 150.287 68.496C151.903 68.496 152.991 70.048 152.991 71.952Z" fill="#75767C"/>
<path d="M194.739 63.904H193.683V68C193.683 68.464 193.699 68.944 193.731 69.408C193.155 68.304 192.243 67.76 191.011 67.76C188.979 67.76 187.747 69.552 187.747 71.936C187.747 74.432 189.043 76.112 191.123 76.112C192.339 76.112 193.491 75.376 193.827 74.32C193.827 75.168 193.843 75.696 193.859 76H194.739V63.904ZM193.731 71.792C193.731 73.92 192.739 75.296 191.203 75.296C189.683 75.296 188.803 73.92 188.803 71.856C188.803 69.92 189.699 68.56 191.155 68.56C192.659 68.56 193.731 69.952 193.731 71.792ZM204.391 71.952C204.391 69.344 202.919 67.664 200.567 67.664C198.279 67.664 196.791 69.456 196.791 71.936C196.791 74.448 198.263 76.176 200.615 76.176C202.935 76.176 204.391 74.448 204.391 71.952ZM203.335 71.952C203.335 73.904 202.199 75.376 200.599 75.376C198.983 75.376 197.847 73.872 197.847 71.968C197.847 69.984 198.935 68.496 200.631 68.496C202.247 68.496 203.335 70.048 203.335 71.952Z" fill="#75767C"/>
<path d="M247.586 67.856L245.858 73.04C245.554 73.952 245.378 74.768 245.266 75.456C245.122 74.688 244.93 73.84 244.626 72.912L242.914 67.856H241.81L244.626 76H245.858L248.642 67.856H247.586ZM254.147 67.888C253.875 67.824 253.651 67.792 253.459 67.792C252.419 67.792 251.667 68.464 251.203 69.808C251.235 69.312 251.251 68.896 251.251 68.56C251.251 68.288 251.251 68.048 251.219 67.856H250.243C250.339 69.072 250.355 69.952 250.355 70.592V76H251.379V72.32C251.379 70 252.099 68.832 253.523 68.832C253.731 68.832 253.939 68.864 254.147 68.928V67.888Z" fill="#75767C"/>
<path d="M298.979 75.168H294.067L298.915 68.736V67.856H292.995V68.688H297.683L292.835 75.168V76H298.979V75.168ZM306.642 76C306.594 75.456 306.546 74.816 306.546 74.096V72.496C306.546 71.296 306.53 70.56 306.498 70.256C306.274 68.528 305.474 67.76 303.73 67.76C302.882 67.76 302.05 67.936 301.234 68.288V69.344C302.05 68.88 302.802 68.656 303.49 68.656C304.85 68.656 305.538 69.424 305.538 70.944V71.072C305.266 71.072 305.01 71.056 304.754 71.056C301.794 71.056 300.306 71.952 300.306 73.744C300.306 75.184 301.378 76.112 302.914 76.112C304.178 76.112 305.106 75.584 305.698 74.512C305.682 74.768 305.666 75.056 305.666 75.36C305.666 75.568 305.666 75.792 305.682 76H306.642ZM305.538 71.904C305.538 74.24 304.818 75.296 303.074 75.296C302.114 75.296 301.362 74.704 301.362 73.776C301.362 72.496 302.594 71.888 304.914 71.888C305.122 71.888 305.33 71.888 305.538 71.904Z" fill="#75767C"/>
<path d="M350.541 75.168H345.629L350.477 68.736V67.856H344.557V68.688H349.245L344.397 75.168V76H350.541V75.168ZM359.469 71.952C359.469 69.344 357.997 67.664 355.645 67.664C353.357 67.664 351.869 69.456 351.869 71.936C351.869 74.448 353.341 76.176 355.693 76.176C358.013 76.176 359.469 74.448 359.469 71.952ZM358.413 71.952C358.413 73.904 357.277 75.376 355.677 75.376C354.061 75.376 352.925 73.872 352.925 71.968C352.925 69.984 354.013 68.496 355.709 68.496C357.325 68.496 358.413 70.048 358.413 71.952Z" fill="#75767C"/>
<rect y="88" width="392" height="1" fill="var(--nes-color-border-default)"/>
<path d="M16 111C16 107.686 18.6863 105 22 105H58C61.3137 105 64 107.686 64 111V147C64 150.314 61.3137 153 58 153H22C18.6863 153 16 150.314 16 147V111Z" fill="var(--nes-color-bg-elevated)"/>
<path d="M39.1954 131.208C37.6434 131.224 36.4914 131.224 35.7074 131.224C34.9394 131.224 34.5554 131.224 34.5554 131.208C37.4194 128.696 38.8594 126.568 38.8594 124.792C38.8594 122.856 37.4834 121.64 35.3234 121.64C34.3154 121.64 33.1794 121.896 31.8834 122.408L32.0754 124.376C33.0034 123.752 33.8834 123.448 34.6994 123.448C35.7394 123.448 36.4754 124.104 36.4754 125.032C36.4754 126.392 34.3794 128.888 31.6594 131.112V133H39.1954V131.208ZM48.384 129.432C48.384 127.144 47.056 125.672 45.136 125.672C44.128 125.672 43.392 126.024 42.928 126.744C43.088 124.488 44 123.368 45.664 123.368C46.224 123.368 46.848 123.512 47.52 123.816L47.792 122.008C46.848 121.768 46.032 121.64 45.344 121.64C42.256 121.64 40.72 123.72 40.72 127.864C40.72 131.496 42 133.176 44.688 133.176C46.96 133.176 48.384 131.768 48.384 129.432ZM46.112 129.496C46.112 130.712 45.52 131.512 44.624 131.512C43.696 131.512 43.072 130.632 43.072 129.336C43.072 128.152 43.632 127.384 44.56 127.384C45.52 127.384 46.112 128.232 46.112 129.496Z" fill="#75767C"/>
<path d="M68 111C68 107.686 70.6863 105 74 105H110C113.314 105 116 107.686 116 111V147C116 150.314 113.314 153 110 153H74C70.6863 153 68 150.314 68 147V111Z" fill="var(--nes-color-bg-elevated)"/>
<path d="M91.1954 131.208C89.6434 131.224 88.4914 131.224 87.7074 131.224C86.9394 131.224 86.5554 131.224 86.5554 131.208C89.4194 128.696 90.8594 126.568 90.8594 124.792C90.8594 122.856 89.4834 121.64 87.3234 121.64C86.3154 121.64 85.1794 121.896 83.8834 122.408L84.0754 124.376C85.0034 123.752 85.8834 123.448 86.6994 123.448C87.7394 123.448 88.4754 124.104 88.4754 125.032C88.4754 126.392 86.3794 128.888 83.6594 131.112V133H91.1954V131.208ZM100.208 121.8H92.928V123.528H97.968L93.808 133H96.288L100.208 123.528V121.8Z" fill="#75767C"/>
<path d="M120 111C120 107.686 122.686 105 126 105H162C165.314 105 168 107.686 168 111V147C168 150.314 165.314 153 162 153H126C122.686 153 120 150.314 120 147V111Z" fill="var(--nes-color-bg-elevated)"/>
<path d="M143.195 131.208C141.643 131.224 140.491 131.224 139.707 131.224C138.939 131.224 138.555 131.224 138.555 131.208C141.419 128.696 142.859 126.568 142.859 124.792C142.859 122.856 141.483 121.64 139.323 121.64C138.315 121.64 137.179 121.896 135.883 122.408L136.075 124.376C137.003 123.752 137.883 123.448 138.699 123.448C139.739 123.448 140.475 124.104 140.475 125.032C140.475 126.392 138.379 128.888 135.659 131.112V133H143.195V131.208ZM152.48 129.864C152.48 128.328 151.744 127.352 150.272 126.952C151.536 126.52 152.16 125.656 152.16 124.328C152.16 122.696 150.768 121.64 148.56 121.64C146.272 121.64 144.864 122.776 144.864 124.584C144.864 125.832 145.536 126.792 146.752 127.144C145.36 127.512 144.656 128.44 144.656 129.944C144.656 131.896 146.128 133.176 148.56 133.176C151.008 133.176 152.48 131.96 152.48 129.864ZM150.016 124.584C150.016 125.304 149.728 125.704 148.768 126.28C147.36 125.704 147.04 125.368 147.04 124.552C147.04 123.784 147.68 123.224 148.56 123.224C149.392 123.224 150.016 123.8 150.016 124.584ZM150.192 129.992C150.192 130.936 149.6 131.544 148.64 131.544C147.616 131.544 146.928 130.872 146.928 129.912C146.928 129.112 147.216 128.6 148.352 128.056C149.632 128.52 150.192 129.016 150.192 129.992Z" fill="#75767C"/>
<path d="M172 111C172 107.686 174.686 105 178 105H214C217.314 105 220 107.686 220 111V147C220 150.314 217.314 153 214 153H178C174.686 153 172 150.314 172 147V111Z" fill="var(--nes-color-bg-elevated)"/>
<path d="M195.195 131.208C193.643 131.224 192.491 131.224 191.707 131.224C190.939 131.224 190.555 131.224 190.555 131.208C193.419 128.696 194.859 126.568 194.859 124.792C194.859 122.856 193.483 121.64 191.323 121.64C190.315 121.64 189.179 121.896 187.883 122.408L188.075 124.376C189.003 123.752 189.883 123.448 190.699 123.448C191.739 123.448 192.475 124.104 192.475 125.032C192.475 126.392 190.379 128.888 187.659 131.112V133H195.195V131.208ZM204.352 126.84C204.352 123.368 203.072 121.64 200.496 121.64C198.048 121.64 196.672 123.032 196.672 125.384C196.672 127.64 197.968 129.112 199.968 129.112C200.992 129.112 201.728 128.728 202.176 127.96C201.872 130.536 201.072 131.432 199.376 131.432C198.8 131.432 198.192 131.288 197.552 130.984L197.28 132.808C198.064 133.048 198.896 133.176 199.792 133.176C202.832 133.176 204.352 131.064 204.352 126.84ZM202 125.512C202 126.664 201.424 127.384 200.544 127.384C199.584 127.384 198.96 126.552 198.96 125.368C198.96 124.2 199.536 123.32 200.448 123.32C201.424 123.32 202 124.216 202 125.512Z" fill="#75767C"/>
<path d="M224 111C224 107.686 226.686 105 230 105H266C269.314 105 272 107.686 272 111V147C272 150.314 269.314 153 266 153H230C226.686 153 224 150.314 224 147V111Z" fill="var(--nes-color-bg-elevated)"/>
<path d="M246.939 129.96C246.939 128.376 246.251 127.528 244.763 127.128C246.043 126.904 246.843 125.88 246.843 124.52C246.843 122.648 245.419 121.64 242.875 121.64C242.091 121.64 241.371 121.688 240.715 121.88L239.883 122.12L240.027 123.976C240.811 123.576 241.643 123.368 242.539 123.368C243.819 123.368 244.523 123.88 244.523 124.712C244.523 125.8 243.531 126.328 241.691 126.328C241.611 126.328 241.403 126.312 241.019 126.296V128.136C241.275 128.12 241.547 128.12 241.819 128.12C243.659 128.12 244.571 128.664 244.571 129.736C244.571 130.776 243.707 131.4 242.219 131.4C241.339 131.4 240.491 131.208 239.707 130.84L239.579 132.776C240.635 133.064 241.467 133.176 242.443 133.176C245.211 133.176 246.939 131.96 246.939 129.96ZM256.48 127.416C256.48 123.56 255.184 121.64 252.576 121.64C249.904 121.64 248.656 123.688 248.656 127.528C248.656 131.192 249.984 133.176 252.576 133.176C255.056 133.176 256.48 131.32 256.48 127.416ZM254.192 127.512C254.192 130.184 253.648 131.512 252.576 131.512C251.488 131.512 250.944 130.184 250.944 127.528C250.944 124.728 251.488 123.32 252.576 123.32C253.744 123.32 254.192 124.664 254.192 127.512Z" fill="#75767C"/>
<path d="M276 111C276 107.686 278.686 105 282 105H318C321.314 105 324 107.686 324 111V147C324 150.314 321.314 153 318 153H282C278.686 153 276 150.314 276 147V111Z" fill="var(--nes-color-bg-elevated)"/>
<path d="M298.939 129.96C298.939 128.376 298.251 127.528 296.763 127.128C298.043 126.904 298.843 125.88 298.843 124.52C298.843 122.648 297.419 121.64 294.875 121.64C294.091 121.64 293.371 121.688 292.715 121.88L291.883 122.12L292.027 123.976C292.811 123.576 293.643 123.368 294.539 123.368C295.819 123.368 296.523 123.88 296.523 124.712C296.523 125.8 295.531 126.328 293.691 126.328C293.611 126.328 293.403 126.312 293.019 126.296V128.136C293.275 128.12 293.547 128.12 293.819 128.12C295.659 128.12 296.571 128.664 296.571 129.736C296.571 130.776 295.707 131.4 294.219 131.4C293.339 131.4 292.491 131.208 291.707 130.84L291.579 132.776C292.635 133.064 293.467 133.176 294.443 133.176C297.211 133.176 298.939 131.96 298.939 129.96ZM306.4 121.8H304.432L301.088 124.408L302.256 125.88L304.16 124.264V133H306.4V121.8Z" fill="#75767C"/>
<path d="M328 111C328 107.686 330.686 105 334 105H370C373.314 105 376 107.686 376 111V147C376 150.314 373.314 153 370 153H334C330.686 153 328 150.314 328 147V111Z" fill="var(--nes-color-bg-elevated)"/>
<path d="M353.83 121.8H351.862L348.518 124.408L349.686 125.88L351.59 124.264V133H353.83V121.8Z" fill="var(--nes-color-text-cta-default)"/>
<path d="M16 167C16 163.686 18.6863 161 22 161H58C61.3137 161 64 163.686 64 167V203C64 206.314 61.3137 209 58 209H22C18.6863 209 16 206.314 16 203V167Z" fill="var(--nes-color-bg-elevated)"/>
<path d="M43.7657 187.208C42.2137 187.224 41.0617 187.224 40.2777 187.224C39.5097 187.224 39.1257 187.224 39.1257 187.208C41.9897 184.696 43.4297 182.568 43.4297 180.792C43.4297 178.856 42.0537 177.64 39.8937 177.64C38.8857 177.64 37.7497 177.896 36.4537 178.408L36.6457 180.376C37.5737 179.752 38.4537 179.448 39.2697 179.448C40.3097 179.448 41.0457 180.104 41.0457 181.032C41.0457 182.392 38.9497 184.888 36.2297 187.112V189H43.7657V187.208Z" fill="var(--nes-color-text-cta-default)"/>
<path d="M68 167C68 163.686 70.6863 161 74 161H110C113.314 161 116 163.686 116 167V203C116 206.314 113.314 209 110 209H74C70.6863 209 68 206.314 68 203V167Z" fill="var(--nes-color-bg-elevated)"/>
<path d="M95.5097 185.96C95.5097 184.376 94.8217 183.528 93.3337 183.128C94.6137 182.904 95.4137 181.88 95.4137 180.52C95.4137 178.648 93.9897 177.64 91.4457 177.64C90.6617 177.64 89.9417 177.688 89.2857 177.88L88.4537 178.12L88.5977 179.976C89.3817 179.576 90.2137 179.368 91.1097 179.368C92.3897 179.368 93.0937 179.88 93.0937 180.712C93.0937 181.8 92.1017 182.328 90.2617 182.328C90.1817 182.328 89.9737 182.312 89.5897 182.296V184.136C89.8457 184.12 90.1177 184.12 90.3897 184.12C92.2297 184.12 93.1417 184.664 93.1417 185.736C93.1417 186.776 92.2777 187.4 90.7897 187.4C89.9097 187.4 89.0617 187.208 88.2777 186.84L88.1497 188.776C89.2057 189.064 90.0377 189.176 91.0137 189.176C93.7817 189.176 95.5097 187.96 95.5097 185.96Z" fill="var(--nes-color-text-cta-default)"/>
<path d="M120 167C120 163.686 122.686 161 126 161H162C165.314 161 168 163.686 168 167V203C168 206.314 165.314 209 162 209H126C122.686 209 120 206.314 120 203V167Z" fill="var(--nes-color-bg-elevated)"/>
<path d="M148.23 185.016H146.79V177.8H143.91L139.766 184.84V186.728H144.598V189H146.79V186.728H148.23V185.016ZM144.742 179.576C144.646 179.944 144.598 180.2 144.598 180.376V185.016H141.814L144.454 180.232L144.742 179.576Z" fill="var(--nes-color-text-cta-default)"/>
<path d="M172 167C172 163.686 174.686 161 178 161H214C217.314 161 220 163.686 220 167V203C220 206.314 217.314 209 214 209H178C174.686 209 172 206.314 172 203V167Z" fill="var(--nes-color-bg-elevated)"/>
<path d="M199.622 185.384C199.622 183.272 198.054 181.784 195.718 181.784C195.51 181.784 195.206 181.8 194.822 181.832L194.902 179.544H199.254V177.8H192.758L192.662 183.848C193.382 183.624 194.054 183.512 194.662 183.512C196.214 183.512 197.206 184.28 197.206 185.48C197.206 186.6 196.342 187.336 194.918 187.336C194.054 187.336 193.222 187.192 192.534 186.76L192.47 188.84C193.35 189.064 194.166 189.176 195.03 189.176C197.974 189.176 199.622 187.768 199.622 185.384Z" fill="var(--nes-color-text-cta-default)"/>
<path d="M224 167C224 163.686 226.686 161 230 161H266C269.314 161 272 163.686 272 167V203C272 206.314 269.314 209 266 209H230C226.686 209 224 206.314 224 203V167Z" fill="var(--nes-color-bg-elevated)"/>
<path d="M251.814 185.432C251.814 183.144 250.486 181.672 248.566 181.672C247.558 181.672 246.822 182.024 246.358 182.744C246.518 180.488 247.43 179.368 249.094 179.368C249.654 179.368 250.278 179.512 250.95 179.816L251.222 178.008C250.278 177.768 249.462 177.64 248.774 177.64C245.686 177.64 244.15 179.72 244.15 183.864C244.15 187.496 245.43 189.176 248.118 189.176C250.39 189.176 251.814 187.768 251.814 185.432ZM249.542 185.496C249.542 186.712 248.95 187.512 248.054 187.512C247.126 187.512 246.502 186.632 246.502 185.336C246.502 184.152 247.062 183.384 247.99 183.384C248.95 183.384 249.542 184.232 249.542 185.496Z" fill="var(--nes-color-text-cta-default)"/>
<path d="M276 167C276 163.686 278.686 161 282 161H318C321.314 161 324 163.686 324 167V203C324 206.314 321.314 209 318 209H282C278.686 209 276 206.314 276 203V167Z" fill="var(--nes-color-bg-elevated)"/>
<path d="M303.638 177.8H296.358V179.528H301.398L297.238 189H299.718L303.638 179.528V177.8Z" fill="var(--nes-color-text-cta-default)"/>
<path d="M328 167C328 163.686 330.686 161 334 161H370C373.314 161 376 163.686 376 167V203C376 206.314 373.314 209 370 209H334C330.686 209 328 206.314 328 203V167Z" fill="var(--nes-color-bg-elevated)"/>
<path d="M355.91 185.864C355.91 184.328 355.174 183.352 353.702 182.952C354.966 182.52 355.59 181.656 355.59 180.328C355.59 178.696 354.198 177.64 351.99 177.64C349.702 177.64 348.294 178.776 348.294 180.584C348.294 181.832 348.966 182.792 350.182 183.144C348.79 183.512 348.086 184.44 348.086 185.944C348.086 187.896 349.558 189.176 351.99 189.176C354.438 189.176 355.91 187.96 355.91 185.864ZM353.446 180.584C353.446 181.304 353.158 181.704 352.198 182.28C350.79 181.704 350.47 181.368 350.47 180.552C350.47 179.784 351.11 179.224 351.99 179.224C352.822 179.224 353.446 179.8 353.446 180.584ZM353.622 185.992C353.622 186.936 353.03 187.544 352.07 187.544C351.046 187.544 350.358 186.872 350.358 185.912C350.358 185.112 350.646 184.6 351.782 184.056C353.062 184.52 353.622 185.016 353.622 185.992Z" fill="var(--nes-color-text-cta-default)"/>
<path d="M16 223C16 219.686 18.6863 217 22 217H58C61.3137 217 64 219.686 64 223V259C64 262.314 61.3137 265 58 265H22C18.6863 265 16 262.314 16 259V223Z" fill="var(--nes-color-bg-elevated)"/>
<path d="M43.7817 238.84C43.7817 235.368 42.5017 233.64 39.9257 233.64C37.4777 233.64 36.1017 235.032 36.1017 237.384C36.1017 239.64 37.3977 241.112 39.3977 241.112C40.4217 241.112 41.1577 240.728 41.6057 239.96C41.3017 242.536 40.5017 243.432 38.8057 243.432C38.2297 243.432 37.6217 243.288 36.9817 242.984L36.7097 244.808C37.4937 245.048 38.3257 245.176 39.2217 245.176C42.2617 245.176 43.7817 243.064 43.7817 238.84ZM41.4297 237.512C41.4297 238.664 40.8537 239.384 39.9737 239.384C39.0137 239.384 38.3897 238.552 38.3897 237.368C38.3897 236.2 38.9657 235.32 39.8777 235.32C40.8537 235.32 41.4297 236.216 41.4297 237.512Z" fill="var(--nes-color-text-cta-default)"/>
<path d="M68 223C68 219.686 70.6863 217 74 217H110C113.314 217 116 219.686 116 223V259C116 262.314 113.314 265 110 265H74C70.6863 265 68 262.314 68 259V223Z" fill="var(--nes-color-bg-elevated)"/>
<path d="M89.2594 233.8H87.2914L83.9474 236.408L85.1154 237.88L87.0194 236.264V245H89.2594V233.8ZM100.48 239.416C100.48 235.56 99.184 233.64 96.576 233.64C93.904 233.64 92.656 235.688 92.656 239.528C92.656 243.192 93.984 245.176 96.576 245.176C99.056 245.176 100.48 243.32 100.48 239.416ZM98.192 239.512C98.192 242.184 97.648 243.512 96.576 243.512C95.488 243.512 94.944 242.184 94.944 239.528C94.944 236.728 95.488 235.32 96.576 235.32C97.744 235.32 98.192 236.664 98.192 239.512Z" fill="var(--nes-color-text-cta-default)"/>
<path d="M120 223C120 219.686 122.686 217 126 217H162C165.314 217 168 219.686 168 223V259C168 262.314 165.314 265 162 265H126C122.686 265 120 262.314 120 259V223Z" fill="var(--nes-color-bg-elevated)"/>
<path d="M141.259 233.8H139.291L135.947 236.408L137.115 237.88L139.019 236.264V245H141.259V233.8ZM150.4 233.8H148.432L145.088 236.408L146.256 237.88L148.16 236.264V245H150.4V233.8Z" fill="var(--nes-color-text-cta-default)"/>
<path d="M172 223C172 219.686 174.686 217 178 217H214C217.314 217 220 219.686 220 223V259C220 262.314 217.314 265 214 265H178C174.686 265 172 262.314 172 259V223Z" fill="var(--nes-color-bg-elevated)"/>
<path d="M193.259 233.8H191.291L187.947 236.408L189.115 237.88L191.019 236.264V245H193.259V233.8ZM204.336 243.208C202.784 243.224 201.632 243.224 200.848 243.224C200.08 243.224 199.696 243.224 199.696 243.208C202.56 240.696 204 238.568 204 236.792C204 234.856 202.624 233.64 200.464 233.64C199.456 233.64 198.32 233.896 197.024 234.408L197.216 236.376C198.144 235.752 199.024 235.448 199.84 235.448C200.88 235.448 201.616 236.104 201.616 237.032C201.616 238.392 199.52 240.888 196.8 243.112V245H204.336V243.208Z" fill="var(--nes-color-text-cta-default)"/>
<path d="M224 223C224 219.686 226.686 217 230 217H266C269.314 217 272 219.686 272 223V259C272 262.314 269.314 265 266 265H230C226.686 265 224 262.314 224 259V223Z" fill="var(--nes-color-bg-elevated)"/>
<path d="M245.259 233.8H243.291L239.947 236.408L241.115 237.88L243.019 236.264V245H245.259V233.8ZM256.08 241.96C256.08 240.376 255.392 239.528 253.904 239.128C255.184 238.904 255.984 237.88 255.984 236.52C255.984 234.648 254.56 233.64 252.016 233.64C251.232 233.64 250.512 233.688 249.856 233.88L249.024 234.12L249.168 235.976C249.952 235.576 250.784 235.368 251.68 235.368C252.96 235.368 253.664 235.88 253.664 236.712C253.664 237.8 252.672 238.328 250.832 238.328C250.752 238.328 250.544 238.312 250.16 238.296V240.136C250.416 240.12 250.688 240.12 250.96 240.12C252.8 240.12 253.712 240.664 253.712 241.736C253.712 242.776 252.848 243.4 251.36 243.4C250.48 243.4 249.632 243.208 248.848 242.84L248.72 244.776C249.776 245.064 250.608 245.176 251.584 245.176C254.352 245.176 256.08 243.96 256.08 241.96Z" fill="var(--nes-color-text-cta-default)"/>
<path d="M276 223C276 219.686 278.686 217 282 217H318C321.314 217 324 219.686 324 223V259C324 262.314 321.314 265 318 265H282C278.686 265 276 262.314 276 259V223Z" fill="var(--nes-color-bg-elevated)"/>
<path d="M297.259 233.8H295.291L291.947 236.408L293.115 237.88L295.019 236.264V245H297.259V233.8ZM308.8 241.016H307.36V233.8H304.48L300.336 240.84V242.728H305.168V245H307.36V242.728H308.8V241.016ZM305.312 235.576C305.216 235.944 305.168 236.2 305.168 236.376V241.016H302.384L305.024 236.232L305.312 235.576Z" fill="var(--nes-color-text-cta-default)"/>
<path d="M328 223C328 219.686 330.686 217 334 217H370C373.314 217 376 219.686 376 223V259C376 262.314 373.314 265 370 265H334C330.686 265 328 262.314 328 259V223Z" fill="var(--nes-color-bg-elevated)"/>
<path d="M349.259 233.8H347.291L343.947 236.408L345.115 237.88L347.019 236.264V245H349.259V233.8ZM360.192 241.384C360.192 239.272 358.624 237.784 356.288 237.784C356.08 237.784 355.776 237.8 355.392 237.832L355.472 235.544H359.824V233.8H353.328L353.232 239.848C353.952 239.624 354.624 239.512 355.232 239.512C356.784 239.512 357.776 240.28 357.776 241.48C357.776 242.6 356.912 243.336 355.488 243.336C354.624 243.336 353.792 243.192 353.104 242.76L353.04 244.84C353.92 245.064 354.736 245.176 355.6 245.176C358.544 245.176 360.192 243.768 360.192 241.384Z" fill="var(--nes-color-text-cta-default)"/>
<path d="M16 279C16 275.686 18.6863 273 22 273H58C61.3137 273 64 275.686 64 279V315C64 318.314 61.3137 321 58 321H22C18.6863 321 16 318.314 16 315V279Z" fill="var(--nes-color-bg-elevated)"/>
<path d="M37.2594 289.8H35.2914L31.9474 292.408L33.1154 293.88L35.0194 292.264V301H37.2594V289.8ZM48.384 297.432C48.384 295.144 47.056 293.672 45.136 293.672C44.128 293.672 43.392 294.024 42.928 294.744C43.088 292.488 44 291.368 45.664 291.368C46.224 291.368 46.848 291.512 47.52 291.816L47.792 290.008C46.848 289.768 46.032 289.64 45.344 289.64C42.256 289.64 40.72 291.72 40.72 295.864C40.72 299.496 42 301.176 44.688 301.176C46.96 301.176 48.384 299.768 48.384 297.432ZM46.112 297.496C46.112 298.712 45.52 299.512 44.624 299.512C43.696 299.512 43.072 298.632 43.072 297.336C43.072 296.152 43.632 295.384 44.56 295.384C45.52 295.384 46.112 296.232 46.112 297.496Z" fill="var(--nes-color-text-cta-default)"/>
<path d="M68 279C68 275.686 70.6863 273 74 273H110C113.314 273 116 275.686 116 279V315C116 318.314 113.314 321 110 321H74C70.6863 321 68 318.314 68 315V279Z" fill="var(--nes-color-bg-elevated)"/>
<path d="M89.2594 289.8H87.2914L83.9474 292.408L85.1154 293.88L87.0194 292.264V301H89.2594V289.8ZM100.208 289.8H92.928V291.528H97.968L93.808 301H96.288L100.208 291.528V289.8Z" fill="var(--nes-color-text-cta-default)"/>
<path d="M120 279C120 275.686 122.686 273 126 273H162C165.314 273 168 275.686 168 279V315C168 318.314 165.314 321 162 321H126C122.686 321 120 318.314 120 315V279Z" fill="var(--nes-color-bg-elevated)"/>
<path d="M141.259 289.8H139.291L135.947 292.408L137.115 293.88L139.019 292.264V301H141.259V289.8ZM152.48 297.864C152.48 296.328 151.744 295.352 150.272 294.952C151.536 294.52 152.16 293.656 152.16 292.328C152.16 290.696 150.768 289.64 148.56 289.64C146.272 289.64 144.864 290.776 144.864 292.584C144.864 293.832 145.536 294.792 146.752 295.144C145.36 295.512 144.656 296.44 144.656 297.944C144.656 299.896 146.128 301.176 148.56 301.176C151.008 301.176 152.48 299.96 152.48 297.864ZM150.016 292.584C150.016 293.304 149.728 293.704 148.768 294.28C147.36 293.704 147.04 293.368 147.04 292.552C147.04 291.784 147.68 291.224 148.56 291.224C149.392 291.224 150.016 291.8 150.016 292.584ZM150.192 297.992C150.192 298.936 149.6 299.544 148.64 299.544C147.616 299.544 146.928 298.872 146.928 297.912C146.928 297.112 147.216 296.6 148.352 296.056C149.632 296.52 150.192 297.016 150.192 297.992Z" fill="var(--nes-color-text-cta-default)"/>
<path d="M172 279C172 275.686 174.686 273 178 273H214C217.314 273 220 275.686 220 279V315C220 318.314 217.314 321 214 321H178C174.686 321 172 318.314 172 315V279Z" fill="var(--nes-color-bg-elevated)"/>
<path d="M193.259 289.8H191.291L187.947 292.408L189.115 293.88L191.019 292.264V301H193.259V289.8ZM204.352 294.84C204.352 291.368 203.072 289.64 200.496 289.64C198.048 289.64 196.672 291.032 196.672 293.384C196.672 295.64 197.968 297.112 199.968 297.112C200.992 297.112 201.728 296.728 202.176 295.96C201.872 298.536 201.072 299.432 199.376 299.432C198.8 299.432 198.192 299.288 197.552 298.984L197.28 300.808C198.064 301.048 198.896 301.176 199.792 301.176C202.832 301.176 204.352 299.064 204.352 294.84ZM202 293.512C202 294.664 201.424 295.384 200.544 295.384C199.584 295.384 198.96 294.552 198.96 293.368C198.96 292.2 199.536 291.32 200.448 291.32C201.424 291.32 202 292.216 202 293.512Z" fill="var(--nes-color-text-cta-default)"/>
<path d="M224 279C224 275.686 226.686 273 230 273H266C269.314 273 272 275.686 272 279V315C272 318.314 269.314 321 266 321H230C226.686 321 224 318.314 224 315V279Z" fill="var(--nes-color-text-cta-default)"/>
<path d="M247.195 299.208C245.643 299.224 244.491 299.224 243.707 299.224C242.939 299.224 242.555 299.224 242.555 299.208C245.419 296.696 246.859 294.568 246.859 292.792C246.859 290.856 245.483 289.64 243.323 289.64C242.315 289.64 241.179 289.896 239.883 290.408L240.075 292.376C241.003 291.752 241.883 291.448 242.699 291.448C243.739 291.448 244.475 292.104 244.475 293.032C244.475 294.392 242.379 296.888 239.659 299.112V301H247.195V299.208ZM256.48 295.416C256.48 291.56 255.184 289.64 252.576 289.64C249.904 289.64 248.656 291.688 248.656 295.528C248.656 299.192 249.984 301.176 252.576 301.176C255.056 301.176 256.48 299.32 256.48 295.416ZM254.192 295.512C254.192 298.184 253.648 299.512 252.576 299.512C251.488 299.512 250.944 298.184 250.944 295.528C250.944 292.728 251.488 291.32 252.576 291.32C253.744 291.32 254.192 292.664 254.192 295.512Z" fill="var(--nes-color-bg-elevated)"/>
<circle cx="248" cy="310" r="3" fill="var(--nes-color-bg-elevated)"/>
<path d="M276 279C276 275.686 278.686 273 282 273H318C321.314 273 324 275.686 324 279V315C324 318.314 321.314 321 318 321H282C278.686 321 276 318.314 276 315V279Z" fill="var(--nes-color-bg-elevated)"/>
<path d="M299.195 299.208C297.643 299.224 296.491 299.224 295.707 299.224C294.939 299.224 294.555 299.224 294.555 299.208C297.419 296.696 298.859 294.568 298.859 292.792C298.859 290.856 297.483 289.64 295.323 289.64C294.315 289.64 293.179 289.896 291.883 290.408L292.075 292.376C293.003 291.752 293.883 291.448 294.699 291.448C295.739 291.448 296.475 292.104 296.475 293.032C296.475 294.392 294.379 296.888 291.659 299.112V301H299.195V299.208ZM306.4 289.8H304.432L301.088 292.408L302.256 293.88L304.16 292.264V301H306.4V289.8Z" fill="var(--nes-color-text-cta-default)"/>
<path d="M328 279C328 275.686 330.686 273 334 273H370C373.314 273 376 275.686 376 279V315C376 318.314 373.314 321 370 321H334C330.686 321 328 318.314 328 315V279Z" fill="var(--nes-color-bg-elevated)"/>
<path d="M351.195 299.208C349.643 299.224 348.491 299.224 347.707 299.224C346.939 299.224 346.555 299.224 346.555 299.208C349.419 296.696 350.859 294.568 350.859 292.792C350.859 290.856 349.483 289.64 347.323 289.64C346.315 289.64 345.179 289.896 343.883 290.408L344.075 292.376C345.003 291.752 345.883 291.448 346.699 291.448C347.739 291.448 348.475 292.104 348.475 293.032C348.475 294.392 346.379 296.888 343.659 299.112V301H351.195V299.208ZM360.336 299.208C358.784 299.224 357.632 299.224 356.848 299.224C356.08 299.224 355.696 299.224 355.696 299.208C358.56 296.696 360 294.568 360 292.792C360 290.856 358.624 289.64 356.464 289.64C355.456 289.64 354.32 289.896 353.024 290.408L353.216 292.376C354.144 291.752 355.024 291.448 355.84 291.448C356.88 291.448 357.616 292.104 357.616 293.032C357.616 294.392 355.52 296.888 352.8 299.112V301H360.336V299.208Z" fill="var(--nes-color-text-cta-default)"/>
<path d="M16 335C16 331.686 18.6863 329 22 329H58C61.3137 329 64 331.686 64 335V371C64 374.314 61.3137 377 58 377H22C18.6863 377 16 374.314 16 371V335Z" fill="var(--nes-color-bg-elevated)"/>
<path d="M39.1954 355.208C37.6434 355.224 36.4914 355.224 35.7074 355.224C34.9394 355.224 34.5554 355.224 34.5554 355.208C37.4194 352.696 38.8594 350.568 38.8594 348.792C38.8594 346.856 37.4834 345.64 35.3234 345.64C34.3154 345.64 33.1794 345.896 31.8834 346.408L32.0754 348.376C33.0034 347.752 33.8834 347.448 34.6994 347.448C35.7394 347.448 36.4754 348.104 36.4754 349.032C36.4754 350.392 34.3794 352.888 31.6594 355.112V357H39.1954V355.208ZM48.08 353.96C48.08 352.376 47.392 351.528 45.904 351.128C47.184 350.904 47.984 349.88 47.984 348.52C47.984 346.648 46.56 345.64 44.016 345.64C43.232 345.64 42.512 345.688 41.856 345.88L41.024 346.12L41.168 347.976C41.952 347.576 42.784 347.368 43.68 347.368C44.96 347.368 45.664 347.88 45.664 348.712C45.664 349.8 44.672 350.328 42.832 350.328C42.752 350.328 42.544 350.312 42.16 350.296V352.136C42.416 352.12 42.688 352.12 42.96 352.12C44.8 352.12 45.712 352.664 45.712 353.736C45.712 354.776 44.848 355.4 43.36 355.4C42.48 355.4 41.632 355.208 40.848 354.84L40.72 356.776C41.776 357.064 42.608 357.176 43.584 357.176C46.352 357.176 48.08 355.96 48.08 353.96Z" fill="var(--nes-color-text-cta-default)"/>
<path d="M68 335C68 331.686 70.6863 329 74 329H110C113.314 329 116 331.686 116 335V371C116 374.314 113.314 377 110 377H74C70.6863 377 68 374.314 68 371V335Z" fill="var(--nes-color-bg-elevated)"/>
<path d="M91.1954 355.208C89.6434 355.224 88.4914 355.224 87.7074 355.224C86.9394 355.224 86.5554 355.224 86.5554 355.208C89.4194 352.696 90.8594 350.568 90.8594 348.792C90.8594 346.856 89.4834 345.64 87.3234 345.64C86.3154 345.64 85.1794 345.896 83.8834 346.408L84.0754 348.376C85.0034 347.752 85.8834 347.448 86.6994 347.448C87.7394 347.448 88.4754 348.104 88.4754 349.032C88.4754 350.392 86.3794 352.888 83.6594 355.112V357H91.1954V355.208ZM100.8 353.016H99.36V345.8H96.48L92.336 352.84V354.728H97.168V357H99.36V354.728H100.8V353.016ZM97.312 347.576C97.216 347.944 97.168 348.2 97.168 348.376V353.016H94.384L97.024 348.232L97.312 347.576Z" fill="var(--nes-color-text-cta-default)"/>
<path d="M120 335C120 331.686 122.686 329 126 329H162C165.314 329 168 331.686 168 335V371C168 374.314 165.314 377 162 377H126C122.686 377 120 374.314 120 371V335Z" fill="var(--nes-color-bg-elevated)"/>
<path d="M143.195 355.208C141.643 355.224 140.491 355.224 139.707 355.224C138.939 355.224 138.555 355.224 138.555 355.208C141.419 352.696 142.859 350.568 142.859 348.792C142.859 346.856 141.483 345.64 139.323 345.64C138.315 345.64 137.179 345.896 135.883 346.408L136.075 348.376C137.003 347.752 137.883 347.448 138.699 347.448C139.739 347.448 140.475 348.104 140.475 349.032C140.475 350.392 138.379 352.888 135.659 355.112V357H143.195V355.208ZM152.192 353.384C152.192 351.272 150.624 349.784 148.288 349.784C148.08 349.784 147.776 349.8 147.392 349.832L147.472 347.544H151.824V345.8H145.328L145.232 351.848C145.952 351.624 146.624 351.512 147.232 351.512C148.784 351.512 149.776 352.28 149.776 353.48C149.776 354.6 148.912 355.336 147.488 355.336C146.624 355.336 145.792 355.192 145.104 354.76L145.04 356.84C145.92 357.064 146.736 357.176 147.6 357.176C150.544 357.176 152.192 355.768 152.192 353.384Z" fill="var(--nes-color-text-cta-default)"/>
<path d="M172 335C172 331.686 174.686 329 178 329H214C217.314 329 220 331.686 220 335V371C220 374.314 217.314 377 214 377H178C174.686 377 172 374.314 172 371V335Z" fill="var(--nes-color-bg-elevated)"/>
<path d="M195.195 355.208C193.643 355.224 192.491 355.224 191.707 355.224C190.939 355.224 190.555 355.224 190.555 355.208C193.419 352.696 194.859 350.568 194.859 348.792C194.859 346.856 193.483 345.64 191.323 345.64C190.315 345.64 189.179 345.896 187.883 346.408L188.075 348.376C189.003 347.752 189.883 347.448 190.699 347.448C191.739 347.448 192.475 348.104 192.475 349.032C192.475 350.392 190.379 352.888 187.659 355.112V357H195.195V355.208ZM204.384 353.432C204.384 351.144 203.056 349.672 201.136 349.672C200.128 349.672 199.392 350.024 198.928 350.744C199.088 348.488 200 347.368 201.664 347.368C202.224 347.368 202.848 347.512 203.52 347.816L203.792 346.008C202.848 345.768 202.032 345.64 201.344 345.64C198.256 345.64 196.72 347.72 196.72 351.864C196.72 355.496 198 357.176 200.688 357.176C202.96 357.176 204.384 355.768 204.384 353.432ZM202.112 353.496C202.112 354.712 201.52 355.512 200.624 355.512C199.696 355.512 199.072 354.632 199.072 353.336C199.072 352.152 199.632 351.384 200.56 351.384C201.52 351.384 202.112 352.232 202.112 353.496Z" fill="var(--nes-color-text-cta-default)"/>
<path d="M224 335C224 331.686 226.686 329 230 329H266C269.314 329 272 331.686 272 335V371C272 374.314 269.314 377 266 377H230C226.686 377 224 374.314 224 371V335Z" fill="var(--nes-color-bg-elevated)"/>
<path d="M247.195 355.208C245.643 355.224 244.491 355.224 243.707 355.224C242.939 355.224 242.555 355.224 242.555 355.208C245.419 352.696 246.859 350.568 246.859 348.792C246.859 346.856 245.483 345.64 243.323 345.64C242.315 345.64 241.179 345.896 239.883 346.408L240.075 348.376C241.003 347.752 241.883 347.448 242.699 347.448C243.739 347.448 244.475 348.104 244.475 349.032C244.475 350.392 242.379 352.888 239.659 355.112V357H247.195V355.208ZM256.208 345.8H248.928V347.528H253.968L249.808 357H252.288L256.208 347.528V345.8Z" fill="var(--nes-color-text-cta-default)"/>
<path d="M276 335C276 331.686 278.686 329 282 329H318C321.314 329 324 331.686 324 335V371C324 374.314 321.314 377 318 377H282C278.686 377 276 374.314 276 371V335Z" fill="var(--nes-color-bg-elevated)"/>
<path d="M299.195 355.208C297.643 355.224 296.491 355.224 295.707 355.224C294.939 355.224 294.555 355.224 294.555 355.208C297.419 352.696 298.859 350.568 298.859 348.792C298.859 346.856 297.483 345.64 295.323 345.64C294.315 345.64 293.179 345.896 291.883 346.408L292.075 348.376C293.003 347.752 293.883 347.448 294.699 347.448C295.739 347.448 296.475 348.104 296.475 349.032C296.475 350.392 294.379 352.888 291.659 355.112V357H299.195V355.208ZM308.48 353.864C308.48 352.328 307.744 351.352 306.272 350.952C307.536 350.52 308.16 349.656 308.16 348.328C308.16 346.696 306.768 345.64 304.56 345.64C302.272 345.64 300.864 346.776 300.864 348.584C300.864 349.832 301.536 350.792 302.752 351.144C301.36 351.512 300.656 352.44 300.656 353.944C300.656 355.896 302.128 357.176 304.56 357.176C307.008 357.176 308.48 355.96 308.48 353.864ZM306.016 348.584C306.016 349.304 305.728 349.704 304.768 350.28C303.36 349.704 303.04 349.368 303.04 348.552C303.04 347.784 303.68 347.224 304.56 347.224C305.392 347.224 306.016 347.8 306.016 348.584ZM306.192 353.992C306.192 354.936 305.6 355.544 304.64 355.544C303.616 355.544 302.928 354.872 302.928 353.912C302.928 353.112 303.216 352.6 304.352 352.056C305.632 352.52 306.192 353.016 306.192 353.992Z" fill="var(--nes-color-text-cta-default)"/>
<path d="M328 335C328 331.686 330.686 329 334 329H370C373.314 329 376 331.686 376 335V371C376 374.314 373.314 377 370 377H334C330.686 377 328 374.314 328 371V335Z" fill="var(--nes-color-bg-elevated)"/>
<path d="M351.195 355.208C349.643 355.224 348.491 355.224 347.707 355.224C346.939 355.224 346.555 355.224 346.555 355.208C349.419 352.696 350.859 350.568 350.859 348.792C350.859 346.856 349.483 345.64 347.323 345.64C346.315 345.64 345.179 345.896 343.883 346.408L344.075 348.376C345.003 347.752 345.883 347.448 346.699 347.448C347.739 347.448 348.475 348.104 348.475 349.032C348.475 350.392 346.379 352.888 343.659 355.112V357H351.195V355.208ZM360.352 350.84C360.352 347.368 359.072 345.64 356.496 345.64C354.048 345.64 352.672 347.032 352.672 349.384C352.672 351.64 353.968 353.112 355.968 353.112C356.992 353.112 357.728 352.728 358.176 351.96C357.872 354.536 357.072 355.432 355.376 355.432C354.8 355.432 354.192 355.288 353.552 354.984L353.28 356.808C354.064 357.048 354.896 357.176 355.792 357.176C358.832 357.176 360.352 355.064 360.352 350.84ZM358 349.512C358 350.664 357.424 351.384 356.544 351.384C355.584 351.384 354.96 350.552 354.96 349.368C354.96 348.2 355.536 347.32 356.448 347.32C357.424 347.32 358 348.216 358 349.512Z" fill="var(--nes-color-text-cta-default)"/>
<path d="M16 391C16 387.686 18.6863 385 22 385H58C61.3137 385 64 387.686 64 391V427C64 430.314 61.3137 433 58 433H22C18.6863 433 16 430.314 16 427V391Z" fill="var(--nes-color-bg-elevated)"/>
<path d="M38.9394 409.96C38.9394 408.376 38.2514 407.528 36.7634 407.128C38.0434 406.904 38.8434 405.88 38.8434 404.52C38.8434 402.648 37.4194 401.64 34.8754 401.64C34.0914 401.64 33.3714 401.688 32.7154 401.88L31.8834 402.12L32.0274 403.976C32.8114 403.576 33.6434 403.368 34.5394 403.368C35.8194 403.368 36.5234 403.88 36.5234 404.712C36.5234 405.8 35.5314 406.328 33.6914 406.328C33.6114 406.328 33.4034 406.312 33.0194 406.296V408.136C33.2754 408.12 33.5474 408.12 33.8194 408.12C35.6594 408.12 36.5714 408.664 36.5714 409.736C36.5714 410.776 35.7074 411.4 34.2194 411.4C33.3394 411.4 32.4914 411.208 31.7074 410.84L31.5794 412.776C32.6354 413.064 33.4674 413.176 34.4434 413.176C37.2114 413.176 38.9394 411.96 38.9394 409.96ZM48.48 407.416C48.48 403.56 47.184 401.64 44.576 401.64C41.904 401.64 40.656 403.688 40.656 407.528C40.656 411.192 41.984 413.176 44.576 413.176C47.056 413.176 48.48 411.32 48.48 407.416ZM46.192 407.512C46.192 410.184 45.648 411.512 44.576 411.512C43.488 411.512 42.944 410.184 42.944 407.528C42.944 404.728 43.488 403.32 44.576 403.32C45.744 403.32 46.192 404.664 46.192 407.512Z" fill="var(--nes-color-text-cta-default)"/>
<path d="M68 391C68 387.686 70.6863 385 74 385H110C113.314 385 116 387.686 116 391V427C116 430.314 113.314 433 110 433H74C70.6863 433 68 430.314 68 427V391Z" fill="var(--nes-color-bg-elevated)"/>
<path d="M90.9394 409.96C90.9394 408.376 90.2514 407.528 88.7634 407.128C90.0434 406.904 90.8434 405.88 90.8434 404.52C90.8434 402.648 89.4194 401.64 86.8754 401.64C86.0914 401.64 85.3714 401.688 84.7154 401.88L83.8834 402.12L84.0274 403.976C84.8114 403.576 85.6434 403.368 86.5394 403.368C87.8194 403.368 88.5234 403.88 88.5234 404.712C88.5234 405.8 87.5314 406.328 85.6914 406.328C85.6114 406.328 85.4034 406.312 85.0194 406.296V408.136C85.2754 408.12 85.5474 408.12 85.8194 408.12C87.6594 408.12 88.5714 408.664 88.5714 409.736C88.5714 410.776 87.7074 411.4 86.2194 411.4C85.3394 411.4 84.4914 411.208 83.7074 410.84L83.5794 412.776C84.6354 413.064 85.4674 413.176 86.4434 413.176C89.2114 413.176 90.9394 411.96 90.9394 409.96ZM98.4 401.8H96.432L93.088 404.408L94.256 405.88L96.16 404.264V413H98.4V401.8Z" fill="var(--nes-color-text-cta-default)"/>
<path d="M120 391C120 387.686 122.686 385 126 385H162C165.314 385 168 387.686 168 391V427C168 430.314 165.314 433 162 433H126C122.686 433 120 430.314 120 427V391Z" fill="var(--nes-color-bg-elevated)"/>
<path d="M145.83 401.8H143.862L140.518 404.408L141.686 405.88L143.59 404.264V413H145.83V401.8Z" fill="#75767C"/>
<path d="M172 391C172 387.686 174.686 385 178 385H214C217.314 385 220 387.686 220 391V427C220 430.314 217.314 433 214 433H178C174.686 433 172 430.314 172 427V391Z" fill="var(--nes-color-bg-elevated)"/>
<path d="M199.766 411.208C198.214 411.224 197.062 411.224 196.278 411.224C195.51 411.224 195.126 411.224 195.126 411.208C197.99 408.696 199.43 406.568 199.43 404.792C199.43 402.856 198.054 401.64 195.894 401.64C194.886 401.64 193.75 401.896 192.454 402.408L192.646 404.376C193.574 403.752 194.454 403.448 195.27 403.448C196.31 403.448 197.046 404.104 197.046 405.032C197.046 406.392 194.95 408.888 192.23 411.112V413H199.766V411.208Z" fill="#75767C"/>
<path d="M224 391C224 387.686 226.686 385 230 385H266C269.314 385 272 387.686 272 391V427C272 430.314 269.314 433 266 433H230C226.686 433 224 430.314 224 427V391Z" fill="var(--nes-color-bg-elevated)"/>
<path d="M251.51 409.96C251.51 408.376 250.822 407.528 249.334 407.128C250.614 406.904 251.414 405.88 251.414 404.52C251.414 402.648 249.99 401.64 247.446 401.64C246.662 401.64 245.942 401.688 245.286 401.88L244.454 402.12L244.598 403.976C245.382 403.576 246.214 403.368 247.11 403.368C248.39 403.368 249.094 403.88 249.094 404.712C249.094 405.8 248.102 406.328 246.262 406.328C246.182 406.328 245.974 406.312 245.59 406.296V408.136C245.846 408.12 246.118 408.12 246.39 408.12C248.23 408.12 249.142 408.664 249.142 409.736C249.142 410.776 248.278 411.4 246.79 411.4C245.91 411.4 245.062 411.208 244.278 410.84L244.15 412.776C245.206 413.064 246.038 413.176 247.014 413.176C249.782 413.176 251.51 411.96 251.51 409.96Z" fill="#75767C"/>
<path d="M276 391C276 387.686 278.686 385 282 385H318C321.314 385 324 387.686 324 391V427C324 430.314 321.314 433 318 433H282C278.686 433 276 430.314 276 427V391Z" fill="var(--nes-color-bg-elevated)"/>
<path d="M304.23 409.016H302.79V401.8H299.91L295.766 408.84V410.728H300.598V413H302.79V410.728H304.23V409.016ZM300.742 403.576C300.646 403.944 300.598 404.2 300.598 404.376V409.016H297.814L300.454 404.232L300.742 403.576Z" fill="#75767C"/>
<path d="M328 391C328 387.686 330.686 385 334 385H370C373.314 385 376 387.686 376 391V427C376 430.314 373.314 433 370 433H334C330.686 433 328 430.314 328 427V391Z" fill="var(--nes-color-bg-elevated)"/>
<path d="M355.622 409.384C355.622 407.272 354.054 405.784 351.718 405.784C351.51 405.784 351.206 405.8 350.822 405.832L350.902 403.544H355.254V401.8H348.758L348.662 407.848C349.382 407.624 350.054 407.512 350.662 407.512C352.214 407.512 353.206 408.28 353.206 409.48C353.206 410.6 352.342 411.336 350.918 411.336C350.054 411.336 349.222 411.192 348.534 410.76L348.47 412.84C349.35 413.064 350.166 413.176 351.03 413.176C353.974 413.176 355.622 411.768 355.622 409.384Z" fill="#75767C"/>
</svg>
