<svg viewBox="0 0 124 102" fill="none" xmlns="http://www.w3.org/2000/svg"><g clip-path="url(#prefix__clip0_403_10317)"><path d="M109.842 88.686a44.606 44.606 0 0013.196-31.669 44.597 44.597 0 00-13.196-31.669 45.239 45.239 0 00-63.71 0 44.6 44.6 0 000 63.338 45.237 45.237 0 0063.71 0z" fill="var(--nes-color-bg-alpha-subtle)"/><path d="M0 47.565a5.14 5.14 0 005.14 5.14h64.082a5.14 5.14 0 005.14-5.14V8.8H0v38.765z" fill="var(--nes-color-bg-elevated)"/><path d="M45.656 21.788a.738.738 0 00-.165-.823.753.753 0 00-.535-.228.738.738 0 00-.533.227L27.664 37.725a.74.74 0 00-.17.827.74.74 0 00.171.245l.068-.073-.065.076.022.017a.87.87 0 00.483.15h.081c.082.002.164-.004.245-.018a.442.442 0 00.163-.065.293.293 0 00.1-.126l16.725-16.727a.719.719 0 00.169-.243zM45.731 33.995a3.552 3.552 0 10-2.956 5.527h.065a3.492 3.492 0 003.491-3.555c0-.702-.209-1.389-.6-1.972zm-.918 1.974a2.042 2.042 0 11-4.085.017 2.042 2.042 0 014.085-.017zM29.117 26.975c.413.167.854.254 1.3.254h.122a3.554 3.554 0 000-7.107h-.061a3.69 3.69 0 00-1.369.253 3.563 3.563 0 000 6.6h.008zM28.6 22.9a2.035 2.035 0 113.76 1.558A2.035 2.035 0 0128.6 22.9z" fill="var(--nes-color-text-info)"/><path d="M85.534 53.9a50.1 50.1 0 00-1.793-3.3 61.453 61.453 0 00-2.065-3.187c-.38-.541-.706-1.027-1.087-1.513-1.087-1.513-2.174-2.863-3.152-4.106l-.326 4.16 5.163 9.833h.054c.218-.054.435-.163.652-.217a.056.056 0 00.039-.015.056.056 0 00.016-.039c.21-.067.41-.158.6-.27.055-.054.109-.054.218-.108.163-.108.326-.162.489-.27a.412.412 0 01.217-.108 2.98 2.98 0 00.489-.378c.055-.054.109-.054.109-.108a1.27 1.27 0 01.377-.374z" fill="#FF7300"/><path d="M76.514 53.2a2.744 2.744 0 002.608 2.918 11.332 11.332 0 003.152-.379l-5.162-9.832-.598 7.293z" fill="#FFAA6D"/><path d="M103.848 44.439L74.394 23.477l-.108 1.135.108 13.668c.707.811 1.794 2.053 2.989 3.566a80.43 80.43 0 013.152 4.106c.38.486.706 1.026 1.087 1.513a64.38 64.38 0 012.065 3.187 47.91 47.91 0 011.793 3.3l-.326.324a2.38 2.38 0 01.381-.324c2.282 4.592 3.314 9.022 1.141 11.885a13.231 13.231 0 01-3.967 1.729c-3.8.594-8.152-.594-9.891-4a114.412 114.412 0 01-7.064-16.91c-.163-.486-.272-.972-.381-1.4-1.793-7.294-7.336-8.05-10-8.05a2.38 2.38 0 00-2.282 2.971c.163.649.6 3.08 1.2 6.537 1.413 8.266 3.75 22.475 5.326 32.416a21.647 21.647 0 008.151 13.722l11.2 8.914A45.12 45.12 0 00113.249 84.9l-3.1-29.93a15.127 15.127 0 00-6.301-10.531z" fill="#FFAA6D"/><path d="M69.222 0H5.14A5.14 5.14 0 000 5.14V8.8h74.362V5.14A5.14 5.14 0 0069.222 0z" fill="var(--nes-color-bg-alpha-subtle)"/></g><defs><clipPath id="prefix__clip0_403_10317"><path fill="#fff" d="M0 0h123.037v101.804H0z"/></clipPath></defs></svg>