<svg viewBox="0 0 734 480" fill="none" xmlns="http://www.w3.org/2000/svg"><g clip-path="url(#prefix__clip0_1956_928)" filter="url(#prefix__filter0_i_1956_928)"><g clip-path="url(#prefix__clip1_1956_928)"><path d="M182.237 140.632c-1.223 2.446-5.808 7.642-5.808 7.642s-20.327 6.725-33.319 13.603c-3.362 0-6.572-.306-10.393-.611-15.589-7.642-22.162-27.817-14.52-43.407 7.642-15.59 30.263-24.148 45.852-16.507 15.743 7.795 25.983 23.691 18.188 39.28z" fill="#FFC100"/><path d="M180.687 157.709l-33.986 13.804-4.026-9.913 33.986-13.803 4.026 9.912z" fill="#006BCE"/><path d="M177.346 156.833c-10.393 1.529-63.428 28.123-63.428 28.123l-18.952 74.28s39.891 46.31 78.254 20.48c34.847-23.537 60.065-131.289 4.126-122.883z" fill="#FFC100"/><path d="M122.399 307.902c-21.977-7.732-33.524-31.816-25.791-53.792 7.732-21.977 31.816-33.524 53.792-25.791 21.977 7.732 33.524 31.816 25.791 53.792-7.732 21.977-31.816 33.524-53.792 25.791zM236.536 269.066c-21.977-7.732-33.524-31.816-25.791-53.792 7.732-21.977 31.816-33.524 53.792-25.791 21.977 7.732 33.524 31.816 25.791 53.792-7.732 21.977-31.816 33.524-53.792 25.791z" fill="#FFC100"/><path d="M201.801 367.446l10.546-19.869c1.986-3.515 5.655-5.655 9.476-5.655h37.598c5.349 0 8.559 5.808 5.808 10.393l-10.24 17.118" stroke="#002779" stroke-width="2.835" stroke-miterlimit="10"/><path d="M306.496 585.395H148.46l-21.245-194.87c0-15.437 12.533-27.817 27.817-27.817h151.464c28.886 0 52.271 23.384 52.271 52.271v118.298c0 28.734-23.385 52.118-52.271 52.118z" fill="#002779"/><path d="M112.084 517.229l74.127-115.394-30.415-17.729a38.092 38.092 0 00-20.022-5.197c-15.742.306-29.651 10.852-34.847 25.677l-40.808 77.337c17.882 10.699 34.847 23.384 51.965 35.306z" fill="#006BCE"/><path d="M314.596 394.345l-39.279 128.08-28.276 97.206-1.987 9.017-5.502 25.677-109.891 9.782-30.11-20.175-1.987-15.131-1.222-9.017-8.865-132.512 30.568-88.036a19.83 19.83 0 0119.869-19.869l163.691.459c7.795.153 13.755 6.877 12.991 14.519z" fill="#FF0035"/><path d="M231.91 292.402l-6.113 80.852-.459 6.114-.306 3.974-29.039 5.961-14.673-6.114.459-3.974.611-6.113 1.987-20.634 3.21-32.86 2.445-24.149 41.878-3.057z" fill="#FFAA6D"/><path d="M183.766 356.289l3.209-32.707 21.856-9.324c2.14-.764 3.821 1.834 2.446 3.516l-27.511 38.515z" fill="#FF8200"/><path d="M292.434 235.087c1.987-45.394-36.681-82.075-82.227-84.062-36.987-1.681-73.822 22.773-85.59 55.786" fill="#FFC100"/><path d="M115.141 247.314c-6.267 5.656-11.616 16.66-9.782 29.04 1.834 12.533 18.799 27.358 34.847 24.76" fill="#FF8200"/><path d="M228.395 288.887l-.459 1.07c-5.044 11.31-16.965 26.441-41.114 35.306-24.148 8.864-35.917-6.725-38.362-9.782-32.25-49.673-45.547-85.132-25.066-114.324 65.721-54.258 105.612 29.04 105.612 29.04.764 1.987 1.528 3.973 2.14 5.96 5.502 17.424 4.585 36.223-2.751 52.73z" fill="#FFAA6D"/><path d="M139.748 204.519s12.532 28.734 68.777 22.926c0 0-23.995-24.454-34.083-26.594-9.934-2.139-34.694 3.668-34.694 3.668z" fill="#FFC100"/><path d="M145.556 187.707s10.087 29.651-35.153 63.428c0 0-1.07-31.332 4.89-39.738 5.808-8.406 30.263-23.69 30.263-23.69z" fill="#FFC100"/><path d="M206.692 425.066l-31.332-.153c-13.145 0-22.468-12.991-18.341-25.524l6.725-20.022 98.887.459-2.293 6.725c-7.642 23.078-29.345 38.668-53.646 38.515z" fill="#FFAA6D"/><path d="M308.024 505.919l-14.673 56.245-3.515 13.45h-82.839l1.376-13.45 17.27-182.643h75.656l6.725 126.398z" fill="#006BCE"/><path d="M350.055 518.605L322.697 410.7c-2.293-20.939-29.04-36.987-50.896-35-18.799 1.681-28.581 16.812-30.262 35.611-.611 7.031.611 13.603 3.21 19.564 4.126 11.157 22.161 55.175 33.93 83.756 5.808 14.214 24.607 21.244 38.974 15.895l32.402-11.921z" fill="#002779"/><path d="M344.706 445.547c-18.953 15.437-35.459 31.332-53.953 47.38l34.083 69.389-80.699 89.87 22.468 17.424 96.288-77.949c12.075-11.463 16.049-29.192 9.629-44.629l-27.816-101.485z" fill="#FFAA6D"/><path d="M358.92 495.984l-20.939-86.507c-3.057-11.31-16.66-27.664-28.276-29.498-7.489-1.07-15.284.459-22.161 4.891-18.494 11.616-29.346 23.996-25.066 45.393 1.376 6.725 41.267 91.857 41.267 91.857l55.175-26.136zM147.237 575.308v-.153l2.292-13.45 31.791-182.643-61.747-.764c-17.271-.153-32.708 10.545-38.363 26.746L36.887 575.155l110.35.153z" fill="#006BCE"/><path d="M165.731 289.039l-5.197 1.834c-2.751.917-5.502-1.222-5.349-4.126.458-6.114.764-15.743-.306-22.468" stroke="#FF8200" stroke-width="2.167" stroke-miterlimit="10"/><path d="M166.801 304.171s16.201-1.529 20.174-14.673" stroke="#001C50" stroke-width="2.167" stroke-miterlimit="10"/><path d="M130.578 377.075l20.48.459-41.572 111.573c-4.738 10.851-15.59 17.423-27.359 16.659l-4.126-.306 52.577-128.385z" fill="#002779"/><path d="M106.429 407.032l28.734-4.28c4.126-.611 8.1 1.835 9.476 5.808 1.528 4.586-.917 9.476-5.503 10.852l-3.973 1.223-.306 13.755c-.306 10.393-8.253 18.952-18.647 19.717l-25.524 7.642-8.406-5.503c-9.629-6.419-11.616-19.716-4.127-28.581l9.324-11.157c5.043-5.044 11.768-8.406 18.952-9.476z" fill="#FFAA6D"/><path d="M74.333 433.932L17.018 580.199a29.869 29.869 0 001.375 23.996c5.655 10.851 19.258 14.672 29.651 8.1l6.114-3.821c6.725-4.279 11.31-10.851 13.144-18.646l29.345-133.123-22.314-22.773z" fill="#FFAA6D"/><path d="M299.771 457.01c-21.778 0-39.433-17.655-39.433-39.433s17.655-39.432 39.433-39.432 39.432 17.654 39.432 39.432c0 21.778-17.654 39.433-39.432 39.433z" fill="#006BCE"/><path d="M140.206 271.31c-.611-1.223.765-3.515.765-3.515.611-1.223 1.987-1.834 3.362-1.529 1.07.306 1.987 1.07 2.293 2.14.305 1.07-.153 2.293-1.07 2.904l-.764.459c-.765.458-1.529.611-2.446.458-1.07-.153-1.987-.306-2.14-.917zM175.971 257.249c-.459-1.223-3.057-1.834-3.057-1.834-1.375-.306-2.598.305-3.362 1.375-.612.917-.612 2.14 0 3.21.764 1.07 1.986 1.528 3.209 1.07l.917-.459c1.376-.764 2.751-2.14 2.293-3.362z" fill="#001C50" stroke="#001C50" stroke-width="2.109" stroke-miterlimit="10"/><path d="M211.582 176.855l-50.437-6.877-22.314 9.934-20.328 13.297-2.904 15.131s20.175-23.079 53.8-17.729c7.947 1.223 14.061 4.585 18.952 9.17 2.751-.305 5.808.612 7.336 3.516 11.463 20.633 26.135 38.974 39.28 58.537 12.227-3.515 24.76-11.31 26.899-13.297 4.127-3.821-50.284-71.682-50.284-71.682z" fill="#FFC100"/><path d="M177.499 239.367c-1.528-.306-2.751-.459-3.974-.459h-3.668c-1.223 0-2.445 0-3.668.153-1.223 0-2.446.153-3.668.306l1.681 7.336c1.07-.459 2.14-.764 3.21-1.07 1.069-.306 2.139-.764 3.209-1.07l3.21-.917c1.07-.305 2.14-.458 3.057-.458l.611-3.821z" fill="#EC6900"/><path d="M176.888 239.216c2.139.306 3.974 2.751 4.279 3.821-4.432 0-5.808.153-5.808.153s-.611-4.28 1.529-3.974zM130.883 258.777c.611-.611 1.528-1.07 2.598-1.681.917-.612 1.987-1.07 3.057-1.529 1.07-.458 2.14-.917 3.057-1.375l3.209-1.376-3.668-6.572c-1.07.764-1.987 1.529-2.904 2.293l-2.751 2.292c-.917.765-1.834 1.682-2.751 2.446-.917.917-1.834 1.834-2.598 3.057l2.751 2.445z" fill="#EC6900"/><path d="M128.285 256.026c-1.376 1.681-1.07 4.738-.612 5.808 3.21-3.057 4.433-3.669 4.433-3.669s-2.446-3.973-3.821-2.139z" fill="#EC6900"/><path d="M111.167 232.489l1.681-2.139c8.254-10.546 19.564-18.188 32.402-21.856l1.376-.459c11.463-3.21 23.537-2.751 34.694 1.07a50.444 50.444 0 0126.441 21.245l36.529 62.664 8.253-12.227-31.332-74.28c-7.794-12.227-19.716-21.245-33.471-25.677-12.533-3.974-25.983-3.821-38.363.305l-38.21 14.214-2.293 3.516c-6.725 10.698-5.808 24.301 2.293 33.624z" fill="#FF003F"/><path d="M244.137 258.166c-8.864-2.445-18.035 2.904-20.48 11.616l-7.337 27.205 6.878 1.834c12.686 3.363 25.83-3.973 29.193-16.659l1.834-6.878c1.987-7.336-2.446-15.131-10.088-17.118z" fill="#FFAA6D"/><path d="M236.342 302.184a5.655 5.655 0 110-11.31 5.655 5.655 0 010 11.31z" fill="#006BCE"/><path d="M202.703 201.73a8.56 8.56 0 111.537-17.05 8.56 8.56 0 01-1.537 17.05z" fill="#AE0039"/><path d="M201.037 151.484s-22.621 39.433 0 39.433c24.912 0 0-39.433 0-39.433z" fill="#AE0039"/><path d="M244.137 178.995s-26.441 36.987-35.764 16.507c-10.546-22.621 35.764-16.507 35.764-16.507z" fill="#AE0039"/></g><g clip-path="url(#prefix__clip2_1956_928)"><path d="M600.741 260.028c6.419 1.375 12.533 3.821 18.035 7.336 13.756 8.712 23.079 18.035 30.721 34.236l3.362 7.031c2.293 4.891 5.655 16.506 6.725 21.856l62.664 298.495c1.682 8.407-4.432 16.201-12.991 16.507l-47.074 1.528L609.759 487.3c0-.153-34.695-145.503-34.542-145.809l22.314-79.171c.306-1.528 1.682-2.598 3.21-2.292z" fill="#E4E0D2"/><path d="M654.693 538.042l9.171 108.363 27.816-.153-34.388-220.547-2.599 112.337z" fill="#AEAFB0"/><path d="M661.877 629.288l9.323-21.245-36.987-315.308c-.917-19.411-16.965-34.542-36.376-34.236l-186.77-.306c-2.598 0-6.877.306-9.017 1.376-15.284 4.432-26.441 19.105-25.371 35.917 4.89 75.044 8.406 312.098 8.406 312.71l10.546 21.244 266.246-.152z" fill="#E4E0D2"/><path d="M383.251 516.95l17.729-106.223-20.48 39.585 2.751 66.638z" fill="#AEAFB0"/><path d="M547.859 361.818l.154.154v-.154h-.154z" fill="#FF003F"/><path d="M547.859 361.666l.154.154v-.154h-.154z" fill="#FF003F"/><path d="M417.945 258.652c-2.445-.153-5.044 0-7.489.459-15.284 3.209-29.192 11.31-39.433 23.078-8.1 9.324-110.808 212.294-110.808 212.294-4.28 10.088-5.808 21.245-4.127 32.097l64.651 128.691c4.28 8.406 13.756 12.685 22.926 10.393l41.725-10.546-31.637-143.517 84.367-146.42-20.175-106.529z" fill="#E4E0D2"/><path d="M508.732 55.375l44.323 11.004c4.585 1.376 12.074 6.572 15.131 10.088 4.433 5.044 6.725 11.616 6.267 18.34l-1.223 20.481-64.498-59.913z" fill="#FF8C00"/><path d="M570.173 112.69c-7.642-36.529-42.336-63.428-78.865-55.786-36.529 7.642-64.192 50.284-56.55 86.812 29.956 42.337 49.519 58.385 49.519 58.385s93.538-52.73 85.896-89.411z" fill="#FF8C00"/><path d="M562.837 113.302c-4.432-36.835-37.904-63.123-74.739-58.844-36.834 4.28-63.122 37.905-58.843 74.739 4.28 36.834 74.739 58.843 74.739 58.843s63.275-37.904 58.843-74.738z" fill="#FF8C00"/><path d="M477.247 266.447l2.751 1.069c11.157 4.28 23.843 14.979 35.612 13.603 7.03-.764 13.297-11.768 19.869-14.672l-1.07-15.59-3.668-19.105c0-3.515 2.445-6.266 5.655-6.878.458-.153.917-.153 1.375-.153h.764c13.45-.305 26.136-4.279 32.097-14.519 1.987-3.516 3.209-7.489 3.821-11.463 16.659-17.118 8.559-103.931-22.009-119.368-14.061-7.03-57.162-22.926-76.573 4.585-19.41 27.511-19.716 56.398-19.716 56.398-.153 2.293-.306 4.585-.306 6.878 0 12.991 3.057 27.511 12.228 40.197l9.17 79.018z" fill="#FBCAA8"/><path d="M493.906 551.034l19.564-245.461 4.585-3.668 4.432 5.197 35.459 240.722-29.651 39.127-34.389-35.917z" fill="#0048A2"/><path d="M500.479 297.015l16.353-18.647 16.201 16.048-14.672 20.328-17.882-17.729z" fill="#0048A2"/><path d="M530.741 231.905l3.668 19.105-25.677-22.926c-2.293-2.904 2.139-8.559 7.03-6.877l20.481 3.821c-3.21.611-5.655 3.362-5.502 6.877z" fill="#FF8200"/><path d="M533.797 245.813l21.856 13.145-10.545 54.105-28.581-34.695 17.27-32.555z" fill="#AEAFB0"/><path d="M474.343 238.171l-27.206 21.092 31.791 67.402 37.904-48.297-42.489-40.197z" fill="#AEAFB0"/><path d="M563.934 154.363c12.822-32.51-3.139-69.26-35.65-82.08-32.51-12.822-69.259 3.138-82.081 35.649-12.821 32.51 3.139 69.259 35.65 82.081 32.51 12.821 69.259-3.139 82.081-35.65z" fill="#FBCAA8"/><path d="M555.959 129.35l-1.681-6.42c3.821-2.598 12.838-.611 16.659.612 1.223.305 1.987 1.222 2.446 2.445.458 1.223 1.07 3.821.305 5.197 0 0-5.043-2.752-14.825-2.293-.764 0-1.528.153-2.14.459-.458-.153-.764 0-.764 0z" fill="#001C50"/><path d="M553.208 190.485c-5.655 4.586-14.978 6.114-23.079 1.376" stroke="#001C50" stroke-width="2.2" stroke-miterlimit="10"/><path d="M565.894 146.773c0-1.223-2.14-2.904-2.14-2.904-1.07-.764-2.598-.917-3.668 0-.917.611-1.376 1.834-1.223 2.904a2.6 2.6 0 002.293 2.293h.764c.917 0 1.681-.153 2.445-.459.764-.611 1.529-1.07 1.529-1.834zM523.252 148.607c.152-1.223 2.445-2.751 2.445-2.751 1.223-.764 2.598-.459 3.668.458.764.765 1.223 1.987.917 3.057-.305 1.223-1.528 2.14-2.751 1.987-.306 0-.764-.153-1.07-.153-1.528-.458-3.362-1.375-3.209-2.598z" fill="#001C50" stroke="#001C50" stroke-width="2.109" stroke-miterlimit="10"/><path d="M534.867 131.948l1.376-6.572c-3.821-2.446-14.52.611-18.341 1.987-1.07.458-1.987 1.375-2.293 2.445-.305 1.223-.305 3.21.306 4.891 0 0 6.725-3.515 17.424-3.057a24.48 24.48 0 001.528.306z" fill="#001C50"/><path d="M454.321 156.708c-5.044-6.42-8.559-13.145-12.533-20.634.611 5.961 1.987 12.227 4.127 18.341 1.987 5.808 4.738 11.157 8.1 16.048 3.057-2.751 2.14-11.463.306-13.755z" fill="#FF8200"/><path d="M546.789 87.32l-2.14 1.375c-5.044 3.21-10.699 4.585-16.659 5.196l-34.084 1.834c-3.821.459-7.489 2.293-10.087 5.197-2.751 3.21-4.127 7.336-3.668 11.463 0 .764.153 1.528.306 2.14.305 1.07.611 2.139 1.069 3.209l.153.459 7.795 16.812a28.996 28.996 0 012.598 10.852c.153 5.349.153 13.45-.153 19.105-.305 5.808-4.432 10.546-10.087 11.768l-3.668.459-18.494-4.433s-5.349-3.209-10.851-8.864c-2.904-2.904-5.808-6.572-8.254-10.852a43.808 43.808 0 01-3.668-8.712c-.764-3.056-1.222-6.266-1.222-9.629.611-23.384 18.493-47.074 18.493-47.074l28.428-19.258 42.031-8.712 16.813 7.49c5.043 2.292 8.406 7.336 8.1 12.838 0 3.057-.611 6.114-2.751 7.336z" fill="#FF8C00"/><path d="M481.985 176.577l-3.515-.306s0 .306-.153.765c-.764 3.209-4.891 14.519-19.717-1.987a362.136 362.136 0 01-9.628-11.31 436.818 436.818 0 01-8.254-10.852c-3.974-5.502-5.655-8.559-5.655-8.559l1.987-.153.764-.153c11.463-1.222 35.765-17.271 44.018-25.83l9.018 19.411c.305.611.764 1.528 1.222 2.598 1.376 2.751.917 15.284.612 24.913-.306 5.655-4.738 10.699-10.699 11.463z" fill="#FF5F00"/><path d="M542.815 175.354l6.419.153c1.223-.153 2.598-1.07 3.974-1.834 2.904-1.681 2.904-5.044.153-7.948-2.446-3.057-3.974-8.253-3.668-12.838" stroke="#FF8200" stroke-width="2.318" stroke-miterlimit="10"/><path d="M447.902 155.791c8.1-5.196 18.799-2.904 23.995 5.044l15.743 24.607-6.267 3.974c-11.462 7.489-26.746 4.279-34.083-7.184l-3.974-6.113c-4.279-6.725-2.292-15.896 4.586-20.328z" fill="#FBCAA8"/><path d="M555.959 209.591c-6.572 4.126-15.437 5.044-23.384 3.209a3.534 3.534 0 00-3.974 2.293c-1.07 3.515-2.293 7.948-2.445 8.253 10.24 2.599 26.899 3.363 39.585-7.183-.153-.153-3.21-3.363-5.655-5.961-1.07-1.223-2.751-1.528-4.127-.611z" fill="#FF5F00"/></g></g><defs><clipPath id="prefix__clip0_1956_928"><path fill="#fff" d="M0 0h734v480H0z"/></clipPath><clipPath id="prefix__clip1_1956_928"><path fill="#fff" transform="matrix(-1 0 0 1 375.426 98.602)" d="M0 0h402.426v1256.49H0z"/></clipPath><clipPath id="prefix__clip2_1956_928"><path fill="#fff" transform="translate(255.477 54)" d="M0 0h481.903v1251.3H0z"/></clipPath><filter id="prefix__filter0_i_1956_928" x="0" y="0" width="734" height="480" filterUnits="userSpaceOnUse" color-interpolation-filters="sRGB"><feFlood flood-opacity="0" result="BackgroundImageFix"/><feBlend in="SourceGraphic" in2="BackgroundImageFix" result="shape"/><feColorMatrix in="SourceAlpha" values="0 0 0 0 0 0 0 0 0 0 0 0 0 0 0 0 0 0 127 0" result="hardAlpha"/><feOffset dy="-1"/><feComposite in2="hardAlpha" operator="arithmetic" k2="-1" k3="1"/><feColorMatrix values="0 0 0 0 0.894118 0 0 0 0 0.898039 0 0 0 0 0.909804 0 0 0 1 0"/><feBlend in2="shape" result="effect1_innerShadow_1956_928"/></filter></defs></svg>