<svg xmlns="http://www.w3.org/2000/svg" width="20" height="20" viewBox="0 0 20 20"><path d="M13.009,1.431a9,9,0,0,1,5.975,9.057,9.181,9.181,0,0,1-8.42,8.49Q10.238,19,9.917,19a9.077,9.077,0,0,1-8.412-5.64,8.663,8.663,0,0,0,3.757.845,8.875,8.875,0,0,0,.891-.045A8.808,8.808,0,0,0,13.9,6.878a8.778,8.778,0,0,0-.891-5.447M11.334,0a.264.264,0,0,0-.206.435,7.7,7.7,0,0,1,1.784,6.288,7.769,7.769,0,0,1-6.858,6.442,7.867,7.867,0,0,1-.792.04,7.712,7.712,0,0,1-4.833-1.7.258.258,0,0,0-.163-.059.27.27,0,0,0-.261.322A10.076,10.076,0,0,0,9.917,20q.356,0,.715-.025A10.048,10.048,0,0,0,11.376,0a.3.3,0,0,0-.042,0Z"/></svg>